<svg width="372" height="76" viewBox="0 0 372 76" fill="none" xmlns="http://www.w3.org/2000/svg">
<path d="M20.168 12.792C15.112 12.792 12.584 15.544 12.584 21.048V24.12H26.696V33.72H12.872V75H0.872V20.856C0.872 15.416 2.472 11.096 5.672 7.89599C8.872 4.696 13.416 3.096 19.304 3.096C23.848 3.096 27.432 4.024 30.056 5.88L26.696 14.904C24.776 13.496 22.6 12.792 20.168 12.792ZM84.0778 23.736V75H72.6538V68.376C70.6698 70.808 68.2058 72.632 65.2618 73.848C62.3818 75.064 59.1818 75.672 55.6618 75.672C50.6698 75.672 46.1898 74.584 42.2218 72.408C38.3178 70.232 35.2458 67.16 33.0058 63.192C30.8298 59.224 29.7418 54.616 29.7418 49.368C29.7418 44.12 30.8298 39.544 33.0058 35.64C35.2458 31.672 38.3178 28.6 42.2218 26.424C46.1898 24.248 50.6698 23.16 55.6618 23.16C58.9898 23.16 62.0298 23.736 64.7818 24.888C67.5978 26.04 70.0298 27.736 72.0778 29.976V23.736H84.0778ZM57.0058 65.4C61.4218 65.4 65.0698 63.928 67.9498 60.984C70.8298 58.04 72.2698 54.168 72.2698 49.368C72.2698 44.568 70.8298 40.696 67.9498 37.752C65.0698 34.808 61.4218 33.336 57.0058 33.336C52.5898 33.336 48.9418 34.808 46.0618 37.752C43.2458 40.696 41.8378 44.568 41.8378 49.368C41.8378 54.168 43.2458 58.04 46.0618 60.984C48.9418 63.928 52.5898 65.4 57.0058 65.4ZM99.7783 23.736H111.778V75H99.7783V23.736ZM105.826 15.288C103.65 15.288 101.826 14.616 100.354 13.272C98.8823 11.864 98.1463 10.136 98.1463 8.088C98.1463 6.04 98.8823 4.344 100.354 2.99999C101.826 1.592 103.65 0.887999 105.826 0.887999C108.002 0.887999 109.826 1.56 111.298 2.904C112.77 4.184 113.506 5.816 113.506 7.8C113.506 9.91199 112.77 11.704 111.298 13.176C109.89 14.584 108.066 15.288 105.826 15.288ZM156.616 23.16C163.08 23.16 168.264 25.048 172.168 28.824C176.072 32.6 178.024 38.2 178.024 45.624V75H166.024V47.16C166.024 42.68 164.968 39.32 162.856 37.08C160.744 34.776 157.736 33.624 153.832 33.624C149.416 33.624 145.928 34.968 143.368 37.656C140.808 40.28 139.528 44.088 139.528 49.08V75H127.528V23.736H138.952V30.36C140.936 27.992 143.432 26.2 146.44 24.984C149.448 23.768 152.84 23.16 156.616 23.16ZM243.828 23.736V75H232.404V68.376C230.42 70.808 227.956 72.632 225.012 73.848C222.132 75.064 218.932 75.672 215.412 75.672C210.42 75.672 205.94 74.584 201.972 72.408C198.068 70.232 194.996 67.16 192.756 63.192C190.58 59.224 189.492 54.616 189.492 49.368C189.492 44.12 190.58 39.544 192.756 35.64C194.996 31.672 198.068 28.6 201.972 26.424C205.94 24.248 210.42 23.16 215.412 23.16C218.74 23.16 221.78 23.736 224.532 24.888C227.348 26.04 229.78 27.736 231.828 29.976V23.736H243.828ZM216.756 65.4C221.172 65.4 224.82 63.928 227.7 60.984C230.58 58.04 232.02 54.168 232.02 49.368C232.02 44.568 230.58 40.696 227.7 37.752C224.82 34.808 221.172 33.336 216.756 33.336C212.34 33.336 208.692 34.808 205.812 37.752C202.996 40.696 201.588 44.568 201.588 49.368C201.588 54.168 202.996 58.04 205.812 60.984C208.692 63.928 212.34 65.4 216.756 65.4ZM288.328 72.216C286.92 73.368 285.192 74.232 283.144 74.808C281.16 75.384 279.048 75.672 276.808 75.672C271.176 75.672 266.824 74.2 263.752 71.256C260.68 68.312 259.144 64.024 259.144 58.392V12.408H271.144V24.12H284.872V33.72H271.144V58.104C271.144 60.6 271.752 62.52 272.968 63.864C274.248 65.144 276.008 65.784 278.248 65.784C280.936 65.784 283.176 65.08 284.968 63.672L288.328 72.216ZM298.247 23.736H310.247V75H298.247V23.736ZM304.295 15.288C302.119 15.288 300.295 14.616 298.823 13.272C297.351 11.864 296.615 10.136 296.615 8.088C296.615 6.04 297.351 4.344 298.823 2.99999C300.295 1.592 302.119 0.887999 304.295 0.887999C306.471 0.887999 308.295 1.56 309.767 2.904C311.239 4.184 311.975 5.816 311.975 7.8C311.975 9.91199 311.239 11.704 309.767 13.176C308.359 14.584 306.535 15.288 304.295 15.288ZM349.517 75.672C344.205 75.672 339.437 74.552 335.213 72.312C330.989 70.072 327.693 66.968 325.325 63C322.957 58.968 321.773 54.424 321.773 49.368C321.773 44.312 322.957 39.8 325.325 35.832C327.693 31.864 330.957 28.76 335.117 26.52C339.341 24.28 344.141 23.16 349.517 23.16C354.573 23.16 358.989 24.184 362.765 26.232C366.605 28.28 369.485 31.224 371.405 35.064L362.189 40.44C360.717 38.072 358.861 36.312 356.621 35.16C354.445 33.944 352.045 33.336 349.421 33.336C344.941 33.336 341.229 34.808 338.285 37.752C335.341 40.632 333.869 44.504 333.869 49.368C333.869 54.232 335.309 58.136 338.189 61.08C341.133 63.96 344.877 65.4 349.421 65.4C352.045 65.4 354.445 64.824 356.621 63.672C358.861 62.456 360.717 60.664 362.189 58.296L371.405 63.672C369.421 67.512 366.509 70.488 362.669 72.6C358.893 74.648 354.509 75.672 349.517 75.672Z" fill="#7700FF"/>
</svg>
